# xmcd CD database file
#
# Track frame offsets:
#	150
#	12962
#	33992
#	51692
#	72727
#	88290
#	116372
#	131542
#	155490
#	184085
#	212735
#	227787
#
# Disc length: 3302 seconds
#
# Revision: 1
# Processed by: cddbd v1.5.2PL0 Copyright (c) Steve Scherf et al.
# Submitted via: CDex 1.70beta2
#
DISCID=ae0ce40c
DTITLE=Geri Allen - Twenty  one
DYEAR=1994
DGENRE=Jazz
TTITLE0=RTG
TTITLE1=If I should loose you
TTITLE2=Drummer's song
TTITLE3=Introspection - Thelonius
TTITLE4=A beautiful friendship
TTITLE5=In the morning(for sister Leola)
TTITLE6=Tea for two
TTITLE7=Lullaby for the leaves
TTITLE8=Feed the fire
TTITLE9=Old folks
TTITLE10=A place of power
TTITLE11=In the middle
EXTD=YEAR: 1994
EXTT0=
EXTT1=
EXTT2=
EXTT3=
EXTT4=
EXTT5=
EXTT6=
EXTT7=
EXTT8=
EXTT9=
EXTT10=
EXTT11=
PLAYORDER=
